<svg width="80" height="80" viewBox="0 0 80 80" fill="none" xmlns="http://www.w3.org/2000/svg">
<path d="M39.8125 0C17.8268 0 0 17.8268 0 39.8125C0 61.7982 17.8268 79.625 39.8125 79.625C61.7982 79.625 79.625 61.7982 79.625 39.8125C79.625 17.8268 61.7982 0 39.8125 0ZM41.7942 59.1145L41.812 61.9315C41.812 62.3226 41.4921 62.6514 41.1011 62.6514H38.5772C38.1862 62.6514 37.8663 62.3314 37.8663 61.9404V59.15C29.9749 58.5635 26.2603 54.0668 25.8604 49.1791C25.8248 48.7614 26.1536 48.406 26.5713 48.406H30.677C31.0235 48.406 31.3257 48.6548 31.379 48.9925C31.8322 51.8096 34.0272 53.9157 37.9641 54.44V41.7587L35.769 41.1988C31.1213 40.088 26.6957 37.1909 26.6957 31.1835C26.6957 24.7051 31.6189 21.2215 37.9107 20.6083V17.6757C37.9107 17.2847 38.2307 16.9647 38.6217 16.9647H41.1188C41.5099 16.9647 41.8298 17.2847 41.8298 17.6757V20.5816C47.9172 21.1948 52.485 24.7495 53.0182 30.2859C53.0626 30.7036 52.7338 31.068 52.3072 31.068H48.3171C47.9616 31.068 47.6595 30.8014 47.615 30.4548C47.2596 27.8599 45.1801 25.7448 41.7942 25.2827V37.2176L44.0515 37.7419C49.8101 39.1638 53.7291 41.9187 53.7291 48.086C53.7291 54.7777 48.7525 58.5102 41.7942 59.1145ZM32.2232 30.7747C32.2232 33.0319 33.6185 34.7826 36.6222 35.8668C37.0398 36.0356 37.4575 36.1689 37.9552 36.3111V25.2916C34.676 25.7093 32.2232 27.5488 32.2232 30.7747ZM42.5763 42.7896C42.3274 42.7362 42.0786 42.674 41.7942 42.594V54.4756C45.58 54.1379 48.1927 52.0584 48.1927 48.5748C48.1927 45.8466 46.7797 44.0692 42.5763 42.7896Z" fill="#FFA630"/>
</svg>
