<svg width="79" height="80" viewBox="0 0 79 80" fill="none" xmlns="http://www.w3.org/2000/svg">
<path d="M72.875 68.4376L20.0375 15.6001L5.03748 0.600098L0.162476 5.2501L13.1375 18.2251L7.24998 35.2501V65.2501C7.24998 66.2447 7.64506 67.1985 8.34833 67.9017C9.05159 68.605 10.0054 69.0001 11 69.0001H14.75C15.7445 69.0001 16.6984 68.605 17.4016 67.9017C18.1049 67.1985 18.5 66.2447 18.5 65.2501V61.5001H56.4125L74.15 79.2376L78.9125 74.4751L72.875 68.4376ZM20.375 50.2501C18.8831 50.2501 17.4524 49.6575 16.3975 48.6026C15.3426 47.5477 14.75 46.1169 14.75 44.6251C14.75 43.1333 15.3426 41.7025 16.3975 40.6476C17.4524 39.5927 18.8831 39.0001 20.375 39.0001C21.8668 39.0001 23.2976 39.5927 24.3525 40.6476C25.4073 41.7025 26 43.1333 26 44.6251C26 46.1169 25.4073 47.5477 24.3525 48.6026C23.2976 49.6575 21.8668 50.2501 20.375 50.2501ZM14.75 31.5001L17.675 22.7626L26.4125 31.5001H14.75ZM61.625 14.6251L67.25 31.5001H45.5L56.45 42.4501C57.875 39.6376 61.1375 38.4751 63.95 39.7876C66.7625 41.1376 67.925 44.5126 66.6125 47.2876C66.05 48.3751 65.1125 49.3876 63.95 49.9501L74.75 60.7501V35.2501L66.95 12.7501C66.1625 10.5001 64.025 9.0001 61.625 9.0001H23L28.625 14.6251H61.625Z" fill="#FFA630"/>
</svg>
