<svg width="53" height="75" viewBox="0 0 53 75" fill="none" xmlns="http://www.w3.org/2000/svg">
<path d="M28.1783 0.771013C27.971 0.52921 27.7137 0.335096 27.4242 0.202004C27.1346 0.0689131 26.8197 0 26.5009 0C26.1822 0 25.8672 0.0689131 25.5776 0.202004C25.2881 0.335096 25.0308 0.52921 24.8235 0.771013C18.9972 7.57675 0 31.1055 0 48.5343C0 64.7758 10.2393 75 26.5 75C42.7607 75 53 64.7758 53 48.5343C53 31.1055 34.0028 7.57675 28.1783 0.771013ZM29.4444 65.4429C29.0907 65.4437 28.742 65.3596 28.4277 65.1978C28.1133 65.0359 27.8424 64.801 27.6379 64.5128C27.4334 64.2246 27.3012 63.8915 27.2524 63.5417C27.2036 63.1918 27.2397 62.8353 27.3576 62.5023C27.5082 62.0678 27.7922 61.6917 28.1692 61.4277C28.5462 61.1637 28.9969 61.0253 29.4573 61.032C32.3804 61.0257 35.1819 59.8632 37.2489 57.7989C39.3158 55.7347 40.4798 52.9368 40.4861 50.0175C40.4794 49.5577 40.618 49.1075 40.8824 48.731C41.1467 48.3545 41.5232 48.0708 41.9583 47.9204C42.2918 47.8027 42.6487 47.7666 42.999 47.8154C43.3494 47.8641 43.6828 47.9961 43.9714 48.2004C44.26 48.4047 44.4952 48.6752 44.6573 48.9891C44.8194 49.3031 44.9036 49.6514 44.9028 50.0046C44.8984 54.0978 43.2683 58.022 40.3703 60.9163C37.4722 63.8106 33.5429 65.4386 29.4444 65.4429Z" fill="#FFA630"/>
</svg>
